<svg width="19" height="19" viewBox="0 0 19 19" fill="none" xmlns="http://www.w3.org/2000/svg">
<path d="M13.4587 1.58325H5.54199C4.9121 1.58325 4.30801 1.83347 3.86261 2.27887C3.41721 2.72427 3.16699 3.32836 3.16699 3.95825V15.0416C3.16699 15.6715 3.41721 16.2756 3.86261 16.721C4.30801 17.1664 4.9121 17.4166 5.54199 17.4166H13.4587C14.0885 17.4166 14.6926 17.1664 15.138 16.721C15.5834 16.2756 15.8337 15.6715 15.8337 15.0416V3.95825C15.8337 3.32836 15.5834 2.72427 15.138 2.27887C14.6926 1.83347 14.0885 1.58325 13.4587 1.58325ZM14.2503 15.0416C14.2503 15.2515 14.1669 15.4529 14.0185 15.6014C13.87 15.7498 13.6686 15.8333 13.4587 15.8333H5.54199C5.33203 15.8333 5.13067 15.7498 4.9822 15.6014C4.83373 15.4529 4.75033 15.2515 4.75033 15.0416V3.95825C4.75033 3.74829 4.83373 3.54693 4.9822 3.39846C5.13067 3.24999 5.33203 3.16659 5.54199 3.16659H13.4587C13.6686 3.16659 13.87 3.24999 14.0185 3.39846C14.1669 3.54693 14.2503 3.74829 14.2503 3.95825V15.0416Z" fill="#99B4FF"/>
<path d="M9.5 14.25C10.1558 14.25 10.6875 13.7183 10.6875 13.0625C10.6875 12.4067 10.1558 11.875 9.5 11.875C8.84416 11.875 8.3125 12.4067 8.3125 13.0625C8.3125 13.7183 8.84416 14.25 9.5 14.25Z" fill="#99B4FF"/>
<path d="M11.4795 4.75H7.52116C7.3112 4.75 7.10983 4.83341 6.96137 4.98187C6.8129 5.13034 6.72949 5.3317 6.72949 5.54167C6.72949 5.75163 6.8129 5.95299 6.96137 6.10146C7.10983 6.24993 7.3112 6.33333 7.52116 6.33333H11.4795C11.6895 6.33333 11.8908 6.24993 12.0393 6.10146C12.1878 5.95299 12.2712 5.75163 12.2712 5.54167C12.2712 5.3317 12.1878 5.13034 12.0393 4.98187C11.8908 4.83341 11.6895 4.75 11.4795 4.75Z" fill="#99B4FF"/>
</svg>
