<svg width="13" height="17" viewBox="0 0 13 17" fill="white" opacity="0.3" xmlns="http://www.w3.org/2000/svg">
<path d="M4.5 4C4.22386 4 4 4.22386 4 4.5C4 4.77614 4.22386 5 4.5 5V4ZM8.5 5C8.77614 5 9 4.77614 9 4.5C9 4.22386 8.77614 4 8.5 4V5ZM3 1.5H10V0.5H3V1.5ZM11.5 3V14H12.5V3H11.5ZM10 15.5H3V16.5H10V15.5ZM1.5 14V3H0.5V14H1.5ZM4.5 5H8.5V4H4.5V5ZM3 15.5C2.17157 15.5 1.5 14.8284 1.5 14H0.5C0.5 15.3807 1.61929 16.5 3 16.5V15.5ZM11.5 14C11.5 14.8284 10.8284 15.5 10 15.5V16.5C11.3807 16.5 12.5 15.3807 12.5 14H11.5ZM10 1.5C10.8284 1.5 11.5 2.17157 11.5 3H12.5C12.5 1.61929 11.3807 0.5 10 0.5V1.5ZM3 0.5C1.61929 0.5 0.5 1.61929 0.5 3H1.5C1.5 2.17157 2.17157 1.5 3 1.5V0.5Z"/>
<circle cx="6.5" cy="12" r="1"/>
</svg>
