<svg width="19" height="19" viewBox="0 0 19 19" fill="none" xmlns="http://www.w3.org/2000/svg">
<path d="M9.50033 11.0834C10.3748 11.0834 11.0837 10.3745 11.0837 9.50008C11.0837 8.62563 10.3748 7.91675 9.50033 7.91675C8.62587 7.91675 7.91699 8.62563 7.91699 9.50008C7.91699 10.3745 8.62587 11.0834 9.50033 11.0834Z" fill="#99B4FF"/>
<path d="M15.0413 11.0834C15.9158 11.0834 16.6247 10.3745 16.6247 9.50008C16.6247 8.62563 15.9158 7.91675 15.0413 7.91675C14.1669 7.91675 13.458 8.62563 13.458 9.50008C13.458 10.3745 14.1669 11.0834 15.0413 11.0834Z" fill="#99B4FF"/>
<path d="M3.95833 11.0834C4.83278 11.0834 5.54167 10.3745 5.54167 9.50008C5.54167 8.62563 4.83278 7.91675 3.95833 7.91675C3.08388 7.91675 2.375 8.62563 2.375 9.50008C2.375 10.3745 3.08388 11.0834 3.95833 11.0834Z" fill="#99B4FF"/>
</svg>
