<svg width="20" height="20" viewBox="0 0 20 20" fill="none" xmlns="http://www.w3.org/2000/svg">
<g clip-path="url(#clip0)">
<path d="M7.57755 7.36418C6.70089 7.36418 5.80172 7.03418 5.12005 6.37835C4.40589 5.69251 4.23255 4.82668 4.04922 3.91001C3.84589 2.89001 3.63505 1.83501 2.62755 0.86668C2.51089 0.75418 2.47005 0.583347 2.52255 0.430847C2.57589 0.27668 2.71339 0.167513 2.87505 0.152513L2.98922 0.140847C5.05922 -0.0699866 7.63505 -0.324987 9.65839 1.61918C10.2992 2.23418 10.6867 3.17835 10.6959 4.14251C10.7051 5.06085 10.3826 5.89418 9.78755 6.48751C9.20172 7.07335 8.40005 7.36418 7.57755 7.36418ZM3.77089 0.902513C4.49089 1.86251 4.68839 2.85418 4.86672 3.74751C5.03005 4.56501 5.17089 5.27251 5.69672 5.77835C6.58922 6.63501 8.20922 6.88918 9.19755 5.90001C9.63255 5.46585 9.86839 4.84418 9.86172 4.15168C9.85422 3.40585 9.56255 2.68418 9.08005 2.22085C7.53589 0.73668 5.58422 0.742513 3.77089 0.902513Z" fill="#99B4FF"/>
<path d="M15.0143 5.83332C14.956 5.83332 14.8968 5.83166 14.8385 5.82749C14.1618 5.78749 13.5743 5.51916 13.1835 5.07166C12.0702 3.79749 12.4385 2.05666 13.4185 1.17416C15.071 -0.313344 17.0935 -0.0483443 18.7168 0.165822L18.8043 0.177489C18.9652 0.198322 19.0993 0.311656 19.1485 0.467489C19.1968 0.623322 19.1502 0.792489 19.0293 0.901656C18.2443 1.60832 18.0577 2.40749 17.8777 3.17999C17.7168 3.86916 17.551 4.58166 16.9568 5.11666C16.4502 5.57166 15.7343 5.83332 15.0143 5.83332ZM16.7743 0.832489C15.791 0.832489 14.8135 1.03832 13.9752 1.79416C13.2885 2.41166 13.031 3.63082 13.8102 4.52249C14.0535 4.80082 14.436 4.96832 14.8877 4.99499C15.4443 5.02416 16.0127 4.84082 16.3985 4.49499C16.7985 4.13499 16.9168 3.62916 17.066 2.98832C17.2118 2.36082 17.386 1.61666 17.906 0.903322C17.5335 0.863322 17.1527 0.832489 16.7743 0.832489ZM13.6968 1.48416H13.7052H13.6968Z" fill="#99B4FF"/>
<path d="M11.3573 10.0498C11.1606 10.0498 10.9848 9.90983 10.9481 9.709C10.3998 6.74649 7.5831 4.30732 7.55393 4.28316C7.37893 4.13399 7.35893 3.87065 7.5081 3.69649C7.65727 3.52065 7.91977 3.49899 8.0956 3.64982C8.2206 3.75649 11.1648 6.29983 11.7681 9.55733C11.8098 9.78317 11.6606 10.0007 11.4339 10.0423C11.4081 10.0473 11.3831 10.0498 11.3573 10.0498Z" fill="#99B4FF"/>
<path d="M2.91667 18.3333H0.416667C0.186667 18.3333 0 18.1467 0 17.9167V10.4167C0 10.1867 0.186667 10 0.416667 10C3.25083 10 4.74833 10.955 4.81083 10.9958C4.96 11.0933 5.03083 11.275 4.9875 11.4475L3.32083 18.0192C3.27333 18.2042 3.1075 18.3333 2.91667 18.3333ZM0.833333 17.5H2.5925L4.1 11.5583C3.63083 11.3342 2.52583 10.9033 0.833333 10.8408V17.5Z" fill="#99B4FF"/>
<path d="M10.8339 20.0002C8.86721 20.0002 5.06471 18.3468 2.97221 17.3602C2.76388 17.2627 2.67554 17.0135 2.77304 16.806C2.87054 16.5968 3.11971 16.5093 3.32804 16.6068C4.96138 17.3768 8.96138 19.1668 10.8339 19.1668C12.8605 19.1668 17.638 16.786 19.0122 16.0785C18.7955 15.7952 18.348 15.4168 17.5005 15.4168C16.7314 15.4168 15.7564 15.7243 14.813 16.0227C13.8105 16.3385 12.773 16.6668 11.8755 16.6668C10.1555 16.6668 7.87138 15.8435 7.77471 15.8085C7.55888 15.7302 7.44721 15.491 7.52555 15.2743C7.60388 15.0585 7.84221 14.9477 8.05971 15.0252C8.08138 15.0335 10.303 15.8335 11.8755 15.8335C12.6447 15.8335 13.6197 15.526 14.563 15.2277C15.5655 14.9118 16.603 14.5835 17.5005 14.5835C19.4447 14.5835 19.958 16.056 19.9789 16.1185C20.043 16.311 19.9597 16.5218 19.7797 16.6185C19.5205 16.7552 13.408 20.0002 10.8339 20.0002Z" fill="#99B4FF"/>
<path d="M13.7499 16.325C13.5199 16.325 13.3333 16.1383 13.3333 15.9083V15.4917C13.3333 14.91 12.9416 14.4117 12.3799 14.2817L4.33492 12.3392C4.11075 12.285 3.97325 12.06 4.02742 11.8358C4.08075 11.6108 4.30992 11.4783 4.52992 11.5283L12.5716 13.47C13.5099 13.6892 14.1666 14.5208 14.1666 15.4917V15.9083C14.1666 16.1383 13.9799 16.325 13.7499 16.325Z" fill="#99B4FF"/>
<path d="M11.3581 10.0483C11.3572 10.0483 11.3564 10.0483 11.3556 10.0483C11.1264 10.0467 10.9406 9.86083 10.9414 9.63167C10.9414 9.4875 10.9939 6.0925 14.7847 3.81C14.9814 3.69167 15.2372 3.75417 15.3564 3.9525C15.4756 4.14917 15.4114 4.40583 15.2147 4.525C11.8422 6.55583 11.7764 9.51083 11.7756 9.63583C11.7731 9.86333 11.5872 10.0483 11.3581 10.0483Z" fill="#99B4FF"/>
</g>
<defs>
<clipPath id="clip0">
<rect width="20" height="20" fill="white"/>
</clipPath>
</defs>
</svg>
