<svg width="19" height="19" viewBox="0 0 19 19" fill="none" xmlns="http://www.w3.org/2000/svg">
<path d="M10.822 17.4166H10.7745C10.6002 17.4061 10.4343 17.3383 10.3026 17.2237C10.1709 17.1092 10.0807 16.9543 10.0461 16.7832L8.70822 10.2916L2.21655 8.95367C2.04513 8.91962 1.8898 8.82981 1.77476 8.69824C1.65973 8.56666 1.59147 8.40072 1.58063 8.22629C1.56978 8.05186 1.61696 7.87875 1.71481 7.73394C1.81265 7.58913 1.95567 7.48077 2.12155 7.42575L14.7882 3.20617C14.9304 3.14746 15.0866 3.13144 15.2377 3.16008C15.3889 3.18872 15.5284 3.26076 15.6392 3.36741C15.7501 3.47406 15.8275 3.6107 15.8619 3.76062C15.8964 3.91053 15.8864 4.06724 15.8332 4.21158L11.6136 16.8782C11.5586 17.0421 11.4513 17.1834 11.3084 17.2806C11.1654 17.3778 10.9946 17.4256 10.822 17.4166ZM5.43863 7.99575L9.54738 8.83492C9.70097 8.86454 9.84234 8.93901 9.95365 9.0489C10.065 9.1588 10.1412 9.29922 10.1728 9.45241L11.0041 13.5612L13.7907 5.20908L5.43863 7.99575Z" fill="#99B4FF"/>
</svg>
