<svg width="20" height="20" viewBox="0 0 20 20" fill="white" opacity="0.3" xmlns="http://www.w3.org/2000/svg">
<path fill-rule="evenodd" clip-rule="evenodd" d="M10 18.5C12.3785 18.5 14.5281 17.5237 16.0715 15.9487C17.5743 14.4152 18.5 12.3162 18.5 10C18.5 5.30558 14.6944 1.5 10 1.5C5.30558 1.5 1.5 5.30558 1.5 10C1.5 10.6259 1.56756 11.2354 1.69561 11.8219C2.5294 15.6409 5.9314 18.5 10 18.5ZM16.7857 16.6486C15.062 18.4077 12.6581 19.5 10 19.5C5.45144 19.5 1.65056 16.3038 0.718623 12.0352C0.575377 11.3791 0.500001 10.6981 0.500001 10C0.500001 4.7533 4.7533 0.500003 10 0.500003C15.2467 0.500003 19.5 4.7533 19.5 10C19.5 12.5883 18.4642 14.9357 16.7857 16.6486ZM10 15C9.72386 15 9.5 14.7761 9.5 14.5L9.5 6.70711L6.49641 9.7107C6.30115 9.90596 5.98457 9.90596 5.7893 9.7107C5.59404 9.51543 5.59404 9.19885 5.7893 9.00359L9.64645 5.14645C9.84171 4.95119 10.1583 4.95119 10.3536 5.14645L14.2107 9.00359C14.406 9.19885 14.406 9.51544 14.2107 9.7107C14.0154 9.90596 13.6989 9.90596 13.5036 9.7107L10.5 6.70711L10.5 14.5C10.5 14.7761 10.2761 15 10 15Z"/>
</svg>
