<svg width="19" height="19" viewBox="0 0 19 19" fill="none" xmlns="http://www.w3.org/2000/svg">
<path d="M16.1797 2.07812H2.82031C1.26517 2.07812 0 3.34329 0 4.89844V14.1016C0 15.6567 1.26517 16.9219 2.82031 16.9219H16.1797C17.7348 16.9219 19 15.6567 19 14.1016V10.9844V8.01562V4.89844C19 3.34329 17.7348 2.07812 16.1797 2.07812ZM16.1797 15.7344H2.82031C1.91996 15.7344 1.1875 15.0019 1.1875 14.1016V4.89844C1.1875 3.99809 1.91996 3.26562 2.82031 3.26562H16.1797C17.08 3.26562 17.8125 3.99809 17.8125 4.89844V7.42188H14.5469C13.401 7.42188 12.4688 8.35414 12.4688 9.5C12.4688 10.6459 13.401 11.5781 14.5469 11.5781H17.8125V14.1016C17.8125 15.0019 17.08 15.7344 16.1797 15.7344ZM17.8125 10.3906H14.5469C14.0558 10.3906 13.6562 9.99111 13.6562 9.5C13.6562 9.00889 14.0558 8.60938 14.5469 8.60938H17.8125V10.3906Z" fill="#99B4FF"/>
</svg>
