<svg width="24" height="23" viewBox="0 0 24 23" fill="none" xmlns="http://www.w3.org/2000/svg">
<path d="M12 1.92859C10.0222 1.92859 8.08879 2.48994 6.4443 3.54167C4.79981 4.59339 3.51809 6.08824 2.76121 7.83719C2.00433 9.58614 1.8063 11.5106 2.19215 13.3673C2.578 15.224 3.53041 16.9295 4.92894 18.268C6.32746 19.6066 8.10929 20.5182 10.0491 20.8875C11.9889 21.2568 13.9996 21.0673 15.8268 20.3429C17.6541 19.6184 19.2159 18.3916 20.3147 16.8176C21.4135 15.2436 22 13.3931 22 11.5C22 10.2431 21.7413 8.99845 21.2388 7.83719C20.7362 6.67593 19.9997 5.62078 19.0711 4.732C18.1425 3.84321 17.0401 3.13818 15.8268 2.65717C14.6136 2.17616 13.3132 1.92859 12 1.92859V1.92859ZM12 19.1572C10.4178 19.1572 8.87103 18.7081 7.55544 17.8667C6.23985 17.0253 5.21447 15.8294 4.60897 14.4303C4.00347 13.0311 3.84504 11.4915 4.15372 10.0062C4.4624 8.52084 5.22433 7.15647 6.34315 6.0856C7.46197 5.01473 8.88743 4.28546 10.4393 3.99C11.9911 3.69455 13.5997 3.84619 15.0615 4.42574C16.5233 5.00529 17.7727 5.98673 18.6518 7.24594C19.5308 8.50515 20 9.98558 20 11.5C20 13.5308 19.1571 15.4784 17.6569 16.9144C16.1566 18.3504 14.1217 19.1572 12 19.1572V19.1572Z" fill="white"/>
<path d="M12 5.75714C11.0717 5.75714 10.1815 6.11009 9.52512 6.73834C8.86875 7.36658 8.5 8.21867 8.5 9.10715C8.5 9.361 8.60536 9.60445 8.79289 9.78395C8.98043 9.96345 9.23478 10.0643 9.5 10.0643C9.76521 10.0643 10.0196 9.96345 10.2071 9.78395C10.3946 9.60445 10.5 9.361 10.5 9.10715C10.5 8.82319 10.588 8.54561 10.7528 8.30951C10.9176 8.0734 11.1519 7.88938 11.426 7.78072C11.7001 7.67205 12.0017 7.64362 12.2926 7.69902C12.5836 7.75441 12.8509 7.89115 13.0607 8.09194C13.2704 8.29273 13.4133 8.54855 13.4712 8.82705C13.529 9.10555 13.4993 9.39423 13.3858 9.65657C13.2723 9.91891 13.08 10.1431 12.8333 10.3009C12.5867 10.4587 12.2967 10.5429 12 10.5429C11.7348 10.5429 11.4804 10.6437 11.2929 10.8232C11.1054 11.0027 11 11.2462 11 11.5V13.4143C11 13.6681 11.1054 13.9116 11.2929 14.0911C11.4804 14.2706 11.7348 14.3714 12 14.3714C12.2652 14.3714 12.5196 14.2706 12.7071 14.0911C12.8946 13.9116 13 13.6681 13 13.4143V12.304C13.8081 12.0781 14.5037 11.5803 14.9585 10.9022C15.4133 10.2241 15.5967 9.41158 15.4749 8.61428C15.3532 7.81698 14.9344 7.08868 14.2958 6.56362C13.6572 6.03857 12.8418 5.75214 12 5.75714V5.75714Z" fill="white"/>
<path d="M12 17.2429C12.5523 17.2429 13 16.8144 13 16.2858C13 15.7571 12.5523 15.3286 12 15.3286C11.4477 15.3286 11 15.7571 11 16.2858C11 16.8144 11.4477 17.2429 12 17.2429Z" fill="white"/>
</svg>
