<svg width="28" height="28" viewBox="0 0 28 28" fill="none" xmlns="http://www.w3.org/2000/svg">
<path d="M23.2857 23.0981L22.5715 22.3982L23.2857 23.0981ZM1.29917 16.7857L2.27616 16.5724L2.27616 16.5724L1.29917 16.7857ZM15 7.5C15 6.94771 14.5523 6.5 14 6.5C13.4477 6.5 13 6.94771 13 7.5L15 7.5ZM14 20.5L13.2929 21.2071C13.6834 21.5976 14.3166 21.5976 14.7071 21.2071L14 20.5ZM20.2785 15.6357C20.6691 15.2452 20.6691 14.612 20.2785 14.2215C19.888 13.8309 19.2548 13.8309 18.8643 14.2215L20.2785 15.6357ZM9.13568 14.2215C8.74516 13.8309 8.11199 13.8309 7.72147 14.2215C7.33094 14.612 7.33094 15.2452 7.72147 15.6357L9.13568 14.2215ZM2 14C2 7.37258 7.37259 2 14 2L14 -1.1365e-06C6.26802 -1.81245e-06 1.81245e-06 6.26801 1.1365e-06 14L2 14ZM14 2C20.6274 2 26 7.37258 26 14L28 14C28 6.26801 21.732 -4.60544e-07 14 -1.1365e-06L14 2ZM26 14C26 17.27 24.6934 20.2328 22.5715 22.3982L24 23.798C26.4733 21.274 28 17.8143 28 14L26 14ZM22.5715 22.3982C20.3923 24.6221 17.358 26 14 26L14 28C17.9172 28 21.4601 26.3899 24 23.798L22.5715 22.3982ZM14 26C8.25645 26 3.45325 21.9639 2.27616 16.5724L0.322182 16.999C1.69558 23.2896 7.29653 28 14 28L14 26ZM2.27616 16.5724C2.09542 15.7446 2 14.884 2 14L1.1365e-06 14C1.04659e-06 15.0284 0.11105 16.032 0.322182 16.999L2.27616 16.5724ZM13 7.5L13 20.5L15 20.5L15 7.5L13 7.5ZM14.7071 21.2071L20.2785 15.6357L18.8643 14.2215L13.2929 19.7929L14.7071 21.2071ZM14.7071 19.7929L9.13568 14.2215L7.72147 15.6357L13.2929 21.2071L14.7071 19.7929Z" fill="white"/>
</svg>


