<svg width="25" height="25" viewBox="0 0 25 25" fill="none" xmlns="http://www.w3.org/2000/svg">
<path d="M19.792 18.75H5.20866C4.63336 18.75 4.16699 19.2164 4.16699 19.7917C4.16699 20.367 4.63336 20.8333 5.20866 20.8333H19.792C20.3673 20.8333 20.8337 20.367 20.8337 19.7917C20.8337 19.2164 20.3673 18.75 19.792 18.75Z" fill="white"/>
<path d="M4.16699 17.7083V19.7916C4.16699 20.3669 4.63336 20.8333 5.20866 20.8333C5.78395 20.8333 6.25032 20.3669 6.25032 19.7916V17.7083C6.25032 17.133 5.78395 16.6666 5.20866 16.6666C4.63336 16.6666 4.16699 17.133 4.16699 17.7083Z" fill="white"/>
<path d="M18.75 17.7083V19.7916C18.75 20.3669 19.2164 20.8333 19.7917 20.8333C20.367 20.8333 20.8333 20.3669 20.8333 19.7916V17.7083C20.8333 17.133 20.367 16.6666 19.7917 16.6666C19.2164 16.6666 18.75 17.133 18.75 17.7083Z" fill="white"/>
<path d="M16.6663 10.4168C16.8281 10.4168 16.9875 10.4545 17.1322 10.5268C17.2768 10.5991 17.4026 10.7041 17.4997 10.8335C17.5818 10.9429 17.6415 11.0674 17.6754 11.2C17.7094 11.3325 17.7169 11.4704 17.6975 11.6058C17.6782 11.7412 17.6324 11.8715 17.5627 11.9892C17.493 12.1069 17.4008 12.2097 17.2913 12.2918L13.1247 15.4168C12.9463 15.5472 12.731 15.6174 12.5101 15.6174C12.2891 15.6174 12.0739 15.5472 11.8955 15.4168L7.72884 12.4793C7.50427 12.32 7.3519 12.0783 7.30506 11.8069C7.25821 11.5356 7.32069 11.2568 7.47884 11.0314C7.55778 10.9187 7.65826 10.8228 7.77447 10.7492C7.89068 10.6756 8.02032 10.6257 8.15591 10.6025C8.29149 10.5792 8.43034 10.5831 8.56444 10.6138C8.69853 10.6445 8.82521 10.7015 8.93717 10.7814L12.4997 13.2918L16.0413 10.6251C16.2216 10.4899 16.441 10.4168 16.6663 10.4168Z" fill="white"/>
<path d="M12.5003 3.12508C12.7766 3.12508 13.0415 3.23483 13.2369 3.43018C13.4322 3.62553 13.542 3.89048 13.542 4.16675L13.542 12.5001C13.542 12.7763 13.4322 13.0413 13.2369 13.2367C13.0415 13.432 12.7766 13.5417 12.5003 13.5417C12.2241 13.5417 11.9591 13.432 11.7638 13.2367C11.5684 13.0413 11.4587 12.7763 11.4587 12.5001L11.4587 4.16675C11.4587 3.89048 11.5684 3.62553 11.7638 3.43018C11.9591 3.23483 12.2241 3.12508 12.5003 3.12508Z" fill="white"/>
</svg>

