<svg width="24" height="24" viewBox="0 0 24 24" fill="none" xmlns="http://www.w3.org/2000/svg">
<path d="M19.8571 19.6984L19.1429 18.9985L19.8571 19.6984ZM1.25314 14.3571L2.23013 14.1438L1.25314 14.3571ZM13 6.5C13 5.94772 12.5523 5.5 12 5.5C11.4477 5.5 11 5.94772 11 6.5L13 6.5ZM12 17.5L11.2929 18.2071C11.6834 18.5976 12.3166 18.5976 12.7071 18.2071L12 17.5ZM17.4214 13.4928C17.8119 13.1023 17.8119 12.4691 17.4214 12.0786C17.0309 11.6881 16.3977 11.6881 16.0072 12.0786L17.4214 13.4928ZM7.99282 12.0786C7.6023 11.6881 6.96913 11.6881 6.57861 12.0786C6.18809 12.4691 6.18809 13.1023 6.57861 13.4928L7.99282 12.0786ZM2 12C2 6.47715 6.47716 2 12 2L12 9.45698e-07C5.37259 3.66311e-07 3.44839e-06 5.37258 2.869e-06 12L2 12ZM12 2C17.5228 2 22 6.47715 22 12L24 12C24 5.37259 18.6274 1.52509e-06 12 9.45698e-07L12 2ZM22 12C22 14.7251 20.9113 17.1939 19.1429 18.9985L20.5714 20.3983C22.6913 18.235 24 15.2693 24 12L22 12ZM19.1429 18.9985C17.3267 20.8519 14.7983 22 12 22L12 24C15.3575 24 18.3945 22.6198 20.5714 20.3983L19.1429 18.9985ZM12 22C7.21392 22 3.21103 18.6367 2.23013 14.1438L0.276158 14.5704C1.45336 19.9624 6.254 24 12 24L12 22ZM2.23013 14.1438C2.07954 13.4541 2 12.7369 2 12L2.869e-06 12C2.79196e-06 12.8813 0.095168 13.7415 0.276158 14.5704L2.23013 14.1438ZM11 6.5L11 17.5L13 17.5L13 6.5L11 6.5ZM12.7071 18.2071L17.4214 13.4928L16.0072 12.0786L11.2929 16.7929L12.7071 18.2071ZM12.7071 16.7929L7.99282 12.0786L6.57861 13.4928L11.2929 18.2071L12.7071 16.7929Z" fill="#555555"/>
</svg>
