<svg width="25" height="25" viewBox="0 0 25 25" fill="none" xmlns="http://www.w3.org/2000/svg">
<path d="M5.20801 6.25L19.7913 6.25C20.3666 6.25 20.833 5.78363 20.833 5.20833C20.833 4.63304 20.3666 4.16667 19.7913 4.16667L5.20801 4.16667C4.63271 4.16667 4.16634 4.63304 4.16634 5.20833C4.16634 5.78363 4.63271 6.25 5.20801 6.25Z" fill="white"/>
<path d="M20.833 7.29175V5.20841C20.833 4.63312 20.3666 4.16675 19.7913 4.16675C19.216 4.16675 18.7497 4.63312 18.7497 5.20841V7.29175C18.7497 7.86704 19.216 8.33342 19.7913 8.33342C20.3666 8.33342 20.833 7.86704 20.833 7.29175Z" fill="white"/>
<path d="M6.25 7.29175V5.20841C6.25 4.63312 5.78363 4.16675 5.20833 4.16675C4.63304 4.16675 4.16667 4.63312 4.16667 5.20841V7.29175C4.16667 7.86704 4.63304 8.33342 5.20833 8.33342C5.78363 8.33342 6.25 7.86704 6.25 7.29175Z" fill="white"/>
<path d="M8.33366 14.5832C8.17195 14.5832 8.01245 14.5455 7.86781 14.4732C7.72317 14.4009 7.59735 14.2959 7.50033 14.1665C7.41825 14.0571 7.35853 13.9326 7.32458 13.8C7.29063 13.6675 7.28312 13.5296 7.30246 13.3942C7.32181 13.2588 7.36764 13.1285 7.43733 13.0108C7.50703 12.8931 7.59922 12.7903 7.70866 12.7082L11.8753 9.58319C12.0537 9.45283 12.269 9.38257 12.4899 9.38257C12.7109 9.38257 12.9261 9.45283 13.1045 9.58319L17.2712 12.5207C17.4957 12.68 17.6481 12.9217 17.6949 13.1931C17.7418 13.4644 17.6793 13.7432 17.5212 13.9686C17.4422 14.0813 17.3417 14.1772 17.2255 14.2508C17.1093 14.3244 16.9797 14.3743 16.8441 14.3975C16.7085 14.4208 16.5697 14.4169 16.4356 14.3862C16.3015 14.3555 16.1748 14.2985 16.0628 14.2186L12.5003 11.7082L8.95866 14.3749C8.77835 14.5101 8.55904 14.5832 8.33366 14.5832Z" fill="white"/>
<path d="M12.4997 21.8749C12.2234 21.8749 11.9585 21.7652 11.7631 21.5698C11.5678 21.3745 11.458 21.1095 11.458 20.8333V12.4999C11.458 12.2237 11.5678 11.9587 11.7631 11.7633C11.9585 11.568 12.2234 11.4583 12.4997 11.4583C12.7759 11.4583 13.0409 11.568 13.2362 11.7633C13.4316 11.9587 13.5413 12.2237 13.5413 12.4999V20.8333C13.5413 21.1095 13.4316 21.3745 13.2362 21.5698C13.0409 21.7652 12.7759 21.8749 12.4997 21.8749Z" fill="white"/>
</svg>
