<svg width="28" height="28" viewBox="0 0 28 28" fill="none" xmlns="http://www.w3.org/2000/svg">
<path d="M23.2857 23.0981L22.5715 22.3982L23.2857 23.0981ZM1.29917 16.7857L2.27615 16.5724L1.29917 16.7857ZM14 7.5L14.7071 6.79289C14.3166 6.40237 13.6834 6.40237 13.2929 6.79289L14 7.5ZM13 20.5C13 21.0523 13.4477 21.5 14 21.5C14.5523 21.5 15 21.0523 15 20.5L13 20.5ZM18.8643 13.7785C19.2548 14.1691 19.888 14.1691 20.2785 13.7785C20.6691 13.388 20.6691 12.7548 20.2785 12.3643L18.8643 13.7785ZM7.72147 12.3643C7.33094 12.7548 7.33094 13.388 7.72147 13.7785C8.11199 14.1691 8.74516 14.1691 9.13568 13.7785L7.72147 12.3643ZM2 14C2 7.37258 7.37259 2 14 2L14 -1.1365e-06C6.26802 -1.81245e-06 1.81245e-06 6.26801 1.1365e-06 14L2 14ZM14 2C20.6274 2 26 7.37258 26 14L28 14C28 6.26801 21.732 -4.60544e-07 14 -1.1365e-06L14 2ZM26 14C26 17.27 24.6934 20.2328 22.5715 22.3982L24 23.798C26.4733 21.274 28 17.8143 28 14L26 14ZM22.5715 22.3982C20.3923 24.6221 17.358 26 14 26L14 28C17.9172 28 21.4601 26.3899 24 23.798L22.5715 22.3982ZM14 26C8.25645 26 3.45325 21.9639 2.27615 16.5724L0.322183 16.999C1.69558 23.2896 7.29654 28 14 28L14 26ZM2.27615 16.5724C2.09542 15.7446 2 14.884 2 14L1.1365e-06 14C1.04659e-06 15.0284 0.111051 16.032 0.322183 16.999L2.27615 16.5724ZM13 7.5L13 20.5L15 20.5L15 7.5L13 7.5ZM13.2929 8.20711L18.8643 13.7785L20.2785 12.3643L14.7071 6.79289L13.2929 8.20711ZM13.2929 6.79289L7.72147 12.3643L9.13568 13.7785L14.7071 8.20711L13.2929 6.79289Z" fill="white"/>
</svg>

