<svg width="24" height="24" viewBox="0 0 24 24" fill="none" xmlns="http://www.w3.org/2000/svg">
<path d="M4.14283 4.3016L4.85707 5.0015L4.14283 4.3016ZM22.7468 9.64285L21.7698 9.85615L22.7468 9.64285ZM11 17.5C11 18.0523 11.4477 18.5 12 18.5C12.5523 18.5 13 18.0523 13 17.5L11 17.5ZM12 6.5L12.7071 5.79289C12.3166 5.40237 11.6834 5.40237 11.2929 5.79289L12 6.5ZM6.57858 10.5072C6.18805 10.8977 6.18805 11.5309 6.57858 11.9214C6.9691 12.3119 7.60227 12.3119 7.99279 11.9214L6.57858 10.5072ZM16.0071 11.9214C16.3977 12.3119 17.0308 12.3119 17.4214 11.9214C17.8119 11.5309 17.8119 10.8977 17.4214 10.5072L16.0071 11.9214ZM22 12C22 17.5228 17.5228 22 12 22L12 24C18.6274 24 24 18.6274 24 12L22 12ZM12 22C6.47713 22 1.99997 17.5228 1.99997 12L-2.85943e-05 12C-2.74355e-05 18.6274 5.37256 24 12 24L12 22ZM1.99997 12C1.99997 9.27493 3.08866 6.80614 4.85707 5.0015L3.42859 3.6017C1.3087 5.76503 -2.91659e-05 8.73068 -2.85943e-05 12L1.99997 12ZM4.85707 5.0015C6.67326 3.14809 9.20163 2 12 2L12 -1.9233e-06C8.64243 -1.33625e-06 5.60545 1.38023 3.42859 3.6017L4.85707 5.0015ZM12 2C16.7861 2 20.7889 5.36329 21.7698 9.85615L23.7238 9.42955C22.5466 4.03756 17.746 -2.92796e-06 12 -1.9233e-06L12 2ZM21.7698 9.85615C21.9204 10.5459 22 11.2631 22 12L24 12C24 11.1187 23.9048 10.2585 23.7238 9.42955L21.7698 9.85615ZM13 17.5L13 6.5L11 6.5L11 17.5L13 17.5ZM11.2929 5.79289L6.57858 10.5072L7.99279 11.9214L12.7071 7.2071L11.2929 5.79289ZM11.2929 7.2071L16.0071 11.9214L17.4214 10.5072L12.7071 5.79289L11.2929 7.2071Z" fill="#555555"/>
</svg>
