<svg width="25" height="25" viewBox="0 0 25 25" fill="none" xmlns="http://www.w3.org/2000/svg">
<path d="M18.75 3.125H6.25C5.4212 3.125 4.62634 3.45424 4.04029 4.04029C3.45424 4.62634 3.125 5.4212 3.125 6.25V18.75C3.125 19.5788 3.45424 20.3737 4.04029 20.9597C4.62634 21.5458 5.4212 21.875 6.25 21.875H18.75C19.5788 21.875 20.3737 21.5458 20.9597 20.9597C21.5458 20.3737 21.875 19.5788 21.875 18.75V6.25C21.875 5.4212 21.5458 4.62634 20.9597 4.04029C20.3737 3.45424 19.5788 3.125 18.75 3.125ZM19.7917 18.75C19.7917 19.0263 19.6819 19.2912 19.4866 19.4866C19.2912 19.6819 19.0263 19.7917 18.75 19.7917H6.25C5.97373 19.7917 5.70878 19.6819 5.51343 19.4866C5.31808 19.2912 5.20833 19.0263 5.20833 18.75V6.25C5.20833 5.97373 5.31808 5.70878 5.51343 5.51343C5.70878 5.31808 5.97373 5.20833 6.25 5.20833H18.75C19.0263 5.20833 19.2912 5.31808 19.4866 5.51343C19.6819 5.70878 19.7917 5.97373 19.7917 6.25V18.75Z" fill="white"/>
<path d="M15.6247 11.4583H13.5413V9.37492C13.5413 9.09865 13.4316 8.8337 13.2362 8.63835C13.0409 8.443 12.7759 8.33325 12.4997 8.33325C12.2234 8.33325 11.9585 8.443 11.7631 8.63835C11.5678 8.8337 11.458 9.09865 11.458 9.37492V11.4583H9.37467C9.09841 11.4583 8.83346 11.568 8.63811 11.7633C8.44275 11.9587 8.33301 12.2237 8.33301 12.4999C8.33301 12.7762 8.44275 13.0411 8.63811 13.2365C8.83346 13.4318 9.09841 13.5416 9.37467 13.5416H11.458V15.6249C11.458 15.9012 11.5678 16.1661 11.7631 16.3615C11.9585 16.5568 12.2234 16.6666 12.4997 16.6666C12.7759 16.6666 13.0409 16.5568 13.2362 16.3615C13.4316 16.1661 13.5413 15.9012 13.5413 15.6249V13.5416H15.6247C15.9009 13.5416 16.1659 13.4318 16.3612 13.2365C16.5566 13.0411 16.6663 12.7762 16.6663 12.4999C16.6663 12.2237 16.5566 11.9587 16.3612 11.7633C16.1659 11.568 15.9009 11.4583 15.6247 11.4583Z" fill="white"/>
</svg>
